<svg xmlns="http://www.w3.org/2000/svg" xmlns:xlink="http://www.w3.org/1999/xlink"><defs>
		<rect id="SVGID_1_" x="-1" y="9" width="1921" height="725"/>
	</defs><symbol id="icon-facebook" viewBox="0 0 512.002 512.002">
<circle style="fill:#4E598F;" cx="256.001" cy="256" r="256"/>
<path style="fill:#364270;" d="M511.596,241.7L391.019,121.085c-1.998,0.605-6.982-1.714-9.173-1.274
	c-51.717,8.62-101.71,0-151.704,13.791c-24.135,6.896-25.859,36.202-34.478,55.165c-12.067,34.478-10.343,72.404-25.859,105.158
	c-10.343,22.411-34.478,36.202-43.098,62.061c-2.875,10.785-2.705,24.379-5.956,34.69l120.98,120.922
	c4.725,0.26,9.48,0.403,14.269,0.403c141.384,0,256-114.616,256-256C512.001,251.201,511.858,246.434,511.596,241.7z"/>
<g>
	<path style="fill:#FFFFFF;" d="M363.043,109.466H148.958c-21.809,0-39.49,17.68-39.49,39.49v214.085
		c0,21.811,17.68,39.49,39.49,39.49h105.584l0.183-104.722h-27.21c-3.536,0-6.406-2.86-6.418-6.396l-0.133-33.759
		c-0.014-3.553,2.867-6.444,6.42-6.444h27.162v-32.618c0-37.852,23.118-58.463,56.884-58.463h27.71c3.543,0,6.42,2.874,6.42,6.42
		v28.463c0,3.546-2.874,6.42-6.416,6.42l-17.006,0.01c-18.363,0-21.921,8.725-21.921,21.533v28.239h40.351
		c3.848,0,6.83,3.358,6.375,7.173l-4.001,33.759c-0.381,3.232-3.122,5.665-6.375,5.665h-36.168l-0.183,104.726h62.826
		c21.809,0,39.49-17.682,39.49-39.491v-214.09C402.533,127.147,384.852,109.466,363.043,109.466L363.043,109.466z"/>
	<polygon style="fill:#FFFFFF;" points="254.542,402.53 254.725,297.808 254.277,297.808 254.277,402.53 	"/>
</g>
<path style="fill:#D1D1D1;" d="M363.043,109.466H254.277v141.741h0.269V218.59c0-37.852,23.118-58.463,56.884-58.463h27.71
	c3.543,0,6.42,2.874,6.42,6.42v28.463c0,3.546-2.874,6.42-6.416,6.42l-17.006,0.01c-18.363,0-21.921,8.725-21.921,21.533v28.238
	h40.351c3.848,0,6.83,3.358,6.375,7.173l-4.001,33.759c-0.381,3.232-3.122,5.665-6.375,5.665h-36.168l-0.183,104.726h62.826
	c21.809,0,39.49-17.682,39.49-39.491V148.956C402.533,127.147,384.852,109.466,363.043,109.466z"/>
<g>
</g>
<g>
</g>
<g>
</g>
<g>
</g>
<g>
</g>
<g>
</g>
<g>
</g>
<g>
</g>
<g>
</g>
<g>
</g>
<g>
</g>
<g>
</g>
<g>
</g>
<g>
</g>
<g>
</g>
</symbol><symbol id="icon-left-arrow" viewBox="0 0 31.494 31.494">
<path d="M10.273,5.009c0.444-0.444,1.143-0.444,1.587,0c0.429,0.429,0.429,1.143,0,1.571l-8.047,8.047h26.554
	c0.619,0,1.127,0.492,1.127,1.111c0,0.619-0.508,1.127-1.127,1.127H3.813l8.047,8.032c0.429,0.444,0.429,1.159,0,1.587
	c-0.444,0.444-1.143,0.444-1.587,0l-9.952-9.952c-0.429-0.429-0.429-1.143,0-1.571L10.273,5.009z"/>
<g>
</g>
<g>
</g>
<g>
</g>
<g>
</g>
<g>
</g>
<g>
</g>
<g>
</g>
<g>
</g>
<g>
</g>
<g>
</g>
<g>
</g>
<g>
</g>
<g>
</g>
<g>
</g>
<g>
</g>
</symbol><symbol id="icon-right-arrow" viewBox="0 0 31.49 31.49">
<path d="M21.205,5.007c-0.429-0.444-1.143-0.444-1.587,0c-0.429,0.429-0.429,1.143,0,1.571l8.047,8.047H1.111
	C0.492,14.626,0,15.118,0,15.737c0,0.619,0.492,1.127,1.111,1.127h26.554l-8.047,8.032c-0.429,0.444-0.429,1.159,0,1.587
	c0.444,0.444,1.159,0.444,1.587,0l9.952-9.952c0.444-0.429,0.444-1.143,0-1.571L21.205,5.007z"/>
<g>
</g>
<g>
</g>
<g>
</g>
<g>
</g>
<g>
</g>
<g>
</g>
<g>
</g>
<g>
</g>
<g>
</g>
<g>
</g>
<g>
</g>
<g>
</g>
<g>
</g>
<g>
</g>
<g>
</g>
</symbol><symbol id="icon-telegram" viewBox="0 0 512 512">
<circle style="fill:#7AA5DA;" cx="256" cy="256" r="256"/>
<path style="fill:#5786B5;" d="M511.924,250.077L398.283,136.625l-185.108,225.63l133.284,133.284
	C443.197,458.988,512,365.535,512,256C512,254.019,511.969,252.045,511.924,250.077z"/>
<path style="fill:#FFFFFF;" d="M383.717,133.52c10.206-3.982,20.756,4.948,18.515,15.67l-45.77,218.781
	c-2.138,10.257-14.188,14.877-22.635,8.671l-69.094-50.717l-35.219,35.961c-6.189,6.31-16.86,3.741-19.515-4.672l-25.41-80.662
	l-68.112-20.118c-8.947-2.638-9.464-15.084-0.793-18.48L383.717,133.52z M350.118,182.065c2.982-2.638-0.483-7.292-3.862-5.189
	l-147.015,91.177c-2.586,1.603-3.775,4.758-2.862,7.671l20.049,88.04c0.397,1.345,2.327,1.155,2.5-0.241l4.482-67.094
	c0.172-1.655,0.965-3.172,2.207-4.275L350.118,182.065z"/>
<path style="fill:#9EC2E5;" d="M346.257,176.876c3.379-2.103,6.844,2.551,3.862,5.189l-124.5,110.089
	c-1.241,1.103-2.034,2.62-2.207,4.275l-4.482,67.094c-0.172,1.396-2.103,1.586-2.5,0.241l-20.049-88.04
	c-0.914-2.913,0.276-6.068,2.862-7.671L346.257,176.876z"/>
<path style="fill:#FFFFFF;" d="M217.154,364.678c-3.241-1.155-5.982-3.741-7.154-7.465l-25.41-80.662l-68.112-20.118
	c-8.947-2.638-9.464-15.084-0.793-18.48L383.717,133.52c6.585-2.569,13.326,0.241,16.653,5.448
	c-0.621-0.948-1.362-1.827-2.189-2.603L216.343,284.81v6.499l-1-0.724l1,40.926v32.823c0.259,0.121,0.534,0.224,0.81,0.31V364.678
	L217.154,364.678z"/>
<g>
	<path style="fill:#D1D1D1;" d="M402.525,145.518c0.052,1.172-0.034,2.413-0.293,3.672l-45.77,218.781
		c-2.138,10.257-14.188,14.877-22.635,8.671l-69.094-50.717l-48.39-34.616v-6.499l181.838-148.446
		c0.827,0.776,1.569,1.655,2.189,2.603c0.121,0.207,0.241,0.396,0.362,0.586c0.103,0.207,0.224,0.414,0.328,0.603
		c0.103,0.207,0.207,0.414,0.293,0.621c0.103,0.224,0.19,0.431,0.276,0.655c0.069,0.19,0.155,0.396,0.224,0.621
		c0.224,0.672,0.396,1.362,0.517,2.086C402.439,144.587,402.491,145.036,402.525,145.518z"/>
	<path style="fill:#D1D1D1;" d="M264.733,325.925l-35.219,35.961c-0.293,0.293-0.603,0.586-0.914,0.845
		c-0.31,0.259-0.621,0.483-0.948,0.707c-0.017,0.017-0.017,0.017-0.017,0.017c-0.655,0.431-1.327,0.793-2.034,1.086
		c-0.362,0.138-0.707,0.276-1.069,0.362c-1.5,0.448-3.034,0.569-4.551,0.414c-0.396-0.034-0.793-0.103-1.172-0.172
		c-0.052,0-0.103-0.017-0.155-0.034c-0.379-0.103-0.759-0.207-1.138-0.328c-0.121-0.034-0.241-0.069-0.362-0.138l-0.81-33.133
		v-40.202L264.733,325.925z"/>
</g>
<g>
	<path style="fill:#DADDE0;" d="M228.6,362.73c-0.31,0.259-0.621,0.5-0.948,0.724v-0.017
		C227.98,363.213,228.29,362.989,228.6,362.73z"/>
	<path style="fill:#DADDE0;" d="M227.652,363.437v0.017c0,0,0-0.017-0.017,0C227.635,363.454,227.635,363.454,227.652,363.437z"/>
	<path style="fill:#DADDE0;" d="M225.601,364.541c0.707-0.293,1.379-0.655,2.034-1.086
		C226.98,363.885,226.29,364.247,225.601,364.541z"/>
	<path style="fill:#DADDE0;" d="M219.981,365.316c1.517,0.155,3.051,0.034,4.551-0.414c-1.086,0.345-2.207,0.5-3.327,0.5
		c-0.345,0-0.69-0.017-1.017-0.052C220.119,365.351,220.05,365.351,219.981,365.316z"/>
</g>
<g>
	<path style="fill:#FFFFFF;" d="M221.205,365.402c-0.345,0-0.69-0.017-1.017-0.052C220.515,365.385,220.86,365.402,221.205,365.402z
		"/>
	<path style="fill:#FFFFFF;" d="M219.981,365.316c0.069,0.034,0.138,0.034,0.207,0.034c-0.362-0.017-0.69-0.069-1.034-0.138
		C219.429,365.265,219.705,365.299,219.981,365.316z"/>
</g>
<g>
	<path style="fill:#DADDE0;" d="M219.981,365.316c-0.276-0.017-0.552-0.052-0.827-0.103c-0.121-0.017-0.241-0.034-0.345-0.069
		C219.188,365.213,219.584,365.282,219.981,365.316z"/>
	<path style="fill:#DADDE0;" d="M217.516,364.782c0.379,0.121,0.759,0.224,1.138,0.328c-0.155-0.034-0.31-0.069-0.465-0.103
		c-0.069-0.017-0.138-0.034-0.19-0.069C217.843,364.903,217.671,364.851,217.516,364.782z"/>
</g>
<g>
	<path style="fill:#FFFFFF;" d="M218.188,365.006c0.155,0.034,0.31,0.069,0.465,0.103
		C218.498,365.092,218.343,365.058,218.188,365.006z"/>
	<path style="fill:#FFFFFF;" d="M217.516,364.782c0.155,0.069,0.328,0.121,0.483,0.155c-0.259-0.052-0.517-0.138-0.776-0.241
		C217.326,364.73,217.412,364.765,217.516,364.782z"/>
</g>
<path style="fill:#DADDE0;" d="M217.516,364.782c-0.103-0.017-0.19-0.052-0.293-0.086c-0.017,0.017-0.052,0-0.069-0.017v-0.034
	C217.274,364.713,217.395,364.747,217.516,364.782z"/>
<path style="fill:#D1D1D1;" d="M216.343,331.511l0.81,33.133c-0.276-0.086-0.552-0.19-0.81-0.31V331.511z"/>
<polygon style="fill:#DADDE0;" points="216.343,291.309 216.343,331.511 215.343,290.585 "/>
<path style="fill:#ADBCC9;" d="M350.118,182.065l-124.5,110.089c-1.241,1.103-2.034,2.62-2.207,4.275l-4.474,67.1
	c-0.172,1.396-2.103,1.586-2.517,0.241l-20.04-88.045c-0.914-2.913,0.276-6.068,2.862-7.671l147.015-91.177
	C349.636,174.773,353.101,179.428,350.118,182.065z"/>
<g>
</g>
<g>
</g>
<g>
</g>
<g>
</g>
<g>
</g>
<g>
</g>
<g>
</g>
<g>
</g>
<g>
</g>
<g>
</g>
<g>
</g>
<g>
</g>
<g>
</g>
<g>
</g>
<g>
</g>
</symbol><symbol id="icon-wave" viewBox="0 0 1920 734">
<style type="text/css">
	.st0{clip-path:url(#SVGID_2_);fill:#E8F1FA;}
	.st1{clip-path:url(#SVGID_2_);fill:#F4F9FE;}
</style>
<g>
	
	<clipPath id="SVGID_2_">
		<use xlink:href="#SVGID_1_" style="overflow:visible;"/>
	</clipPath>
	<path class="st0" d="M-40.1,169C-8.3,145.4,515.3-32.8,852.1,46.5c427.6,100.7,866.7,417.5,1070.3,315.9
		c142.9-71.4,151.6,700.5,23.3,845.4c-173.5,195.9-1786.6,92.2-1897.9-19.6C-114.3,1025.2-263,334.5-40.1,169z"/>
	<path class="st1" d="M-9,158.7c33.1-21.9,565.6-171.3,897.6-73.8c421.5,123.8,842.7,464.1,1051.6,373.6
		c146.6-63.5,113.3,707.7-22.7,845.4c-183.9,186.2-1828.3,27.4-1933.3-90.3C-168.9,1042-240.5,311.8-9,158.7z"/>
</g>
</symbol><symbol id="icon-youtube" viewBox="0 0 512 512">
<circle style="fill:#D22215;" cx="256" cy="256" r="256"/>
<path style="fill:#A81411;" d="M384.857,170.339c-7.677,2.343-15.682,4.356-23.699,6.361
	c-56.889,12.067-132.741-20.687-165.495,32.754c-27.317,42.494-35.942,95.668-67.017,133.663L294.629,509.1
	c110.47-16.72,197.773-104.036,214.476-214.511L384.857,170.339z"/>
<path style="fill:#FFFFFF;" d="M341.649,152.333H170.351c-33.608,0-60.852,27.245-60.852,60.852v85.632
	c0,33.608,27.245,60.852,60.852,60.852h171.298c33.608,0,60.852-27.245,60.852-60.852v-85.632
	C402.501,179.578,375.256,152.333,341.649,152.333L341.649,152.333z M300.494,260.167l-80.12,38.212
	c-2.136,1.019-4.603-0.536-4.603-2.901v-78.814c0-2.4,2.532-3.955,4.67-2.87l80.12,40.601
	C302.947,255.602,302.904,259.019,300.494,260.167L300.494,260.167z"/>
<path style="fill:#D1D1D1;" d="M341.649,152.333h-87.373v78.605l46.287,23.455c2.384,1.208,2.341,4.624-0.069,5.773l-46.218,22.044
	v77.459h87.373c33.608,0,60.852-27.245,60.852-60.852v-85.632C402.501,179.578,375.256,152.333,341.649,152.333z"/>
<g>
</g>
<g>
</g>
<g>
</g>
<g>
</g>
<g>
</g>
<g>
</g>
<g>
</g>
<g>
</g>
<g>
</g>
<g>
</g>
<g>
</g>
<g>
</g>
<g>
</g>
<g>
</g>
<g>
</g>
</symbol></svg>